<mxfile host="app.diagrams.net" modified="2023-09-05T08:08:29.926Z" agent="Mozilla/5.0 (Windows NT 10.0; Win64; x64) AppleWebKit/537.36 (KHTML, like Gecko) Chrome/116.0.0.0 Safari/537.36" etag="ac0MF_makmAbCxVHMsuA" version="21.7.2" type="github">
  <diagram id="C5RBs43oDa-KdzZeNtuy" name="Page-1">
    <mxGraphModel dx="933" dy="398" grid="1" gridSize="10" guides="1" tooltips="1" connect="1" arrows="1" fold="1" page="1" pageScale="1" pageWidth="827" pageHeight="1169" background="none" math="0" shadow="0">
      <root>
        <mxCell id="WIyWlLk6GJQsqaUBKTNV-0" />
        <mxCell id="WIyWlLk6GJQsqaUBKTNV-1" parent="WIyWlLk6GJQsqaUBKTNV-0" />
        <mxCell id="yx8wUFnUiiNTk7n7HI-t-1" value="P1" style="shape=umlActor;verticalLabelPosition=bottom;verticalAlign=top;html=1;outlineConnect=0;rounded=1;" vertex="1" parent="WIyWlLk6GJQsqaUBKTNV-1">
          <mxGeometry x="100" y="300" width="30" height="60" as="geometry" />
        </mxCell>
        <mxCell id="yx8wUFnUiiNTk7n7HI-t-2" value="P2" style="shape=umlActor;verticalLabelPosition=bottom;verticalAlign=top;html=1;outlineConnect=0;rounded=1;" vertex="1" parent="WIyWlLk6GJQsqaUBKTNV-1">
          <mxGeometry x="570" y="300" width="30" height="60" as="geometry" />
        </mxCell>
        <mxCell id="yx8wUFnUiiNTk7n7HI-t-10" value="" style="whiteSpace=wrap;html=1;aspect=fixed;rounded=1;" vertex="1" parent="WIyWlLk6GJQsqaUBKTNV-1">
          <mxGeometry x="130" y="120" width="440" height="440" as="geometry" />
        </mxCell>
        <mxCell id="yx8wUFnUiiNTk7n7HI-t-13" value="start" style="ellipse;whiteSpace=wrap;html=1;strokeColor=#FF0000;rounded=1;" vertex="1" parent="WIyWlLk6GJQsqaUBKTNV-1">
          <mxGeometry x="325" y="150" width="50" height="30" as="geometry" />
        </mxCell>
        <mxCell id="yx8wUFnUiiNTk7n7HI-t-15" value="" style="edgeStyle=elbowEdgeStyle;rounded=1;elbow=horizontal;html=1;labelBackgroundColor=#ffffff;jettySize=auto;orthogonalLoop=1;strokeWidth=1;fontSize=14;endArrow=none;endFill=0;entryX=0.002;entryY=0.454;entryDx=0;entryDy=0;entryPerimeter=0;exitX=0;exitY=0.5;exitDx=0;exitDy=0;strokeColor=#00CC00;" edge="1" parent="WIyWlLk6GJQsqaUBKTNV-1" source="yx8wUFnUiiNTk7n7HI-t-13" target="yx8wUFnUiiNTk7n7HI-t-10">
          <mxGeometry width="60" height="60" relative="1" as="geometry">
            <mxPoint x="320" y="170" as="sourcePoint" />
            <mxPoint x="120" y="345" as="targetPoint" />
            <Array as="points">
              <mxPoint x="219" y="250" />
            </Array>
          </mxGeometry>
        </mxCell>
        <mxCell id="yx8wUFnUiiNTk7n7HI-t-26" value="" style="endArrow=none;html=1;rounded=1;edgeStyle=elbowEdgeStyle;exitX=1;exitY=0.5;exitDx=0;exitDy=0;entryX=0.998;entryY=0.454;entryDx=0;entryDy=0;entryPerimeter=0;strokeColor=#00CC00;" edge="1" parent="WIyWlLk6GJQsqaUBKTNV-1" source="yx8wUFnUiiNTk7n7HI-t-13" target="yx8wUFnUiiNTk7n7HI-t-10">
          <mxGeometry width="50" height="50" relative="1" as="geometry">
            <mxPoint x="380" y="167" as="sourcePoint" />
            <mxPoint x="572" y="322" as="targetPoint" />
          </mxGeometry>
        </mxCell>
        <mxCell id="yx8wUFnUiiNTk7n7HI-t-27" value="loncat" style="ellipse;whiteSpace=wrap;html=1;strokeColor=#FF0000;rounded=1;" vertex="1" parent="WIyWlLk6GJQsqaUBKTNV-1">
          <mxGeometry x="325" y="310" width="50" height="30" as="geometry" />
        </mxCell>
        <mxCell id="yx8wUFnUiiNTk7n7HI-t-29" value="finish" style="ellipse;whiteSpace=wrap;html=1;strokeColor=#FF0000;rounded=1;" vertex="1" parent="WIyWlLk6GJQsqaUBKTNV-1">
          <mxGeometry x="325" y="470" width="50" height="30" as="geometry" />
        </mxCell>
        <mxCell id="yx8wUFnUiiNTk7n7HI-t-31" value="" style="endArrow=none;html=1;rounded=1;elbow=vertical;entryX=0.5;entryY=1;entryDx=0;entryDy=0;exitX=0.5;exitY=0;exitDx=0;exitDy=0;strokeColor=#00CC00;" edge="1" parent="WIyWlLk6GJQsqaUBKTNV-1" source="yx8wUFnUiiNTk7n7HI-t-27" target="yx8wUFnUiiNTk7n7HI-t-13">
          <mxGeometry width="50" height="50" relative="1" as="geometry">
            <mxPoint x="220" y="300" as="sourcePoint" />
            <mxPoint x="270" y="250" as="targetPoint" />
          </mxGeometry>
        </mxCell>
        <mxCell id="yx8wUFnUiiNTk7n7HI-t-32" value="" style="endArrow=none;html=1;rounded=1;elbow=vertical;entryX=0.5;entryY=1;entryDx=0;entryDy=0;exitX=0.5;exitY=0;exitDx=0;exitDy=0;strokeColor=#00CC00;" edge="1" parent="WIyWlLk6GJQsqaUBKTNV-1">
          <mxGeometry width="50" height="50" relative="1" as="geometry">
            <mxPoint x="349.5" y="470" as="sourcePoint" />
            <mxPoint x="349.5" y="340" as="targetPoint" />
          </mxGeometry>
        </mxCell>
        <mxCell id="yx8wUFnUiiNTk7n7HI-t-36" value="KARUNG RACING" style="text;html=1;align=center;verticalAlign=middle;resizable=0;points=[];autosize=1;strokeColor=none;fillColor=none;" vertex="1" parent="WIyWlLk6GJQsqaUBKTNV-1">
          <mxGeometry x="290" y="90" width="120" height="30" as="geometry" />
        </mxCell>
      </root>
    </mxGraphModel>
  </diagram>
</mxfile>
